<svg id="Слой_1" data-name="Слой 1" xmlns="http://www.w3.org/2000/svg"
     viewBox="0 0 49.26 38.28">
  <defs>
    <style>
      .cls-1{fill:#fff;}.cls-2{mask:url(#mask);}.cls-3{mask:url(#mask-2-2);}.cls-4{fill:#e20c16;}.cls-5{fill:#ea6008;}.cls-6{mask:url(#mask-3);}.cls-7{fill:#f59e00;}.cls-8{mask:url(#mask-4-2);}
    </style>
    <mask id="mask" x="48.2" y="37.46" width="1" height="0.82" maskUnits="userSpaceOnUse">
      <g id="mask-2">
        <polygon id="path-1" class="cls-1" points="48.2 38.28 49.2 38.28 49.2 37.46 48.2 37.46 48.2 38.28"/>
      </g>
    </mask>
    <mask id="mask-2-2" x="0" y="0" width="24.6" height="30.37" maskUnits="userSpaceOnUse">
      <g id="mask-4">
        <polygon id="path-3" class="cls-1" points="0 0 24.6 0 24.6 30.37 0 30.37 0 0"/>
      </g>
    </mask>
    <mask id="mask-3" x="47.99" y="22.83" width="1.26" height="1" maskUnits="userSpaceOnUse">
      <g id="mask-6">
        <polygon id="path-5" class="cls-1" points="49.26 23.83 49.26 22.83 47.99 22.83 47.99 23.83 49.26 23.83"/>
      </g>
    </mask>
    <mask id="mask-4-2" x="24.6" y="0" width="24.6" height="30.37" maskUnits="userSpaceOnUse">
      <g id="mask-8">
        <polygon id="path-7" class="cls-1" points="24.6 0 49.2 0 49.2 30.37 24.6 30.37 24.6 0"/>
      </g>
    </mask>
  </defs>
  <title>Монтажная область 6</title>
  <g id="Desktop">
    <g id="Basket-2">
      <g id="Page-1">
        <path id="Fill-1" class="cls-1"
              d="M8.44,34.36a1.56,1.56,0,0,0-.5-.33,1.69,1.69,0,0,0-.64-.12l-.38,0a1.9,1.9,0,0,0-.39.11,1.81,1.81,0,0,0-.36.23,1.26,1.26,0,0,0-.29.35,1.5,1.5,0,0,0-.56-.53,1.68,1.68,0,0,0-.79-.19,1.63,1.63,0,0,0-.31,0A1.68,1.68,0,0,0,3.9,34a1.44,1.44,0,0,0-.31.19,1.24,1.24,0,0,0-.26.29V34H2.49v4h.85V35.81a1.25,1.25,0,0,1,.08-.45A1.05,1.05,0,0,1,3.64,35a.83.83,0,0,1,.32-.2,1,1,0,0,1,.39-.07A.85.85,0,0,1,5,35a1.14,1.14,0,0,1,.24.78v2.25h.85V35.81a1.25,1.25,0,0,1,.08-.45A1.05,1.05,0,0,1,6.41,35a.83.83,0,0,1,.32-.2,1,1,0,0,1,.39-.07.85.85,0,0,1,.67.27A1.14,1.14,0,0,1,8,35.8v2.25h.85V35.51a1.87,1.87,0,0,0-.11-.64,1.5,1.5,0,0,0-.33-.51"/>
        <path id="Fill-3" class="cls-1"
              d="M12.91,36.54a1.27,1.27,0,0,1-.24.41,1.05,1.05,0,0,1-.39.27,1.13,1.13,0,0,1-.49.1,1.19,1.19,0,0,1-.51-.1,1.21,1.21,0,0,1-.39-.28,1.09,1.09,0,0,1-.23-.41,1.35,1.35,0,0,1-.09-.5,1.43,1.43,0,0,1,.09-.5,1.18,1.18,0,0,1,.23-.41,1.21,1.21,0,0,1,.39-.28,1.19,1.19,0,0,1,.51-.1,1.13,1.13,0,0,1,.49.1,1.36,1.36,0,0,1,.39.27,1.38,1.38,0,0,1,.24.41A1.44,1.44,0,0,1,13,36a1.36,1.36,0,0,1-.09.51Zm0-2a1.81,1.81,0,0,0-.52-.43,1.73,1.73,0,0,0-.75-.16,1.92,1.92,0,0,0-.79.16,1.88,1.88,0,0,0-.64.44,2.2,2.2,0,0,0-.43.67,2.48,2.48,0,0,0,0,1.7,2.09,2.09,0,0,0,.43.67,1.88,1.88,0,0,0,.64.44,1.92,1.92,0,0,0,.79.16,1.6,1.6,0,0,0,.75-.16,1.66,1.66,0,0,0,.52-.43v.49h.88V34H13Z"/>
        <path id="Fill-5" class="cls-1"
              d="M17.87,36a2.16,2.16,0,0,0-1-.39l-.42-.06-.26,0L16,35.46a.42.42,0,0,1-.14-.12.27.27,0,0,1-.05-.18.4.4,0,0,1,.2-.35,1.08,1.08,0,0,1,.56-.13,1.55,1.55,0,0,1,.37,0l.35.08a2,2,0,0,1,.29.11l.23.12.38-.69A2.62,2.62,0,0,0,17.4,34a3.19,3.19,0,0,0-.89-.11,2.53,2.53,0,0,0-.7.09,1.57,1.57,0,0,0-.52.25,1.19,1.19,0,0,0-.45,1,1,1,0,0,0,.35.79,1.92,1.92,0,0,0,1,.39l.42,0a1.31,1.31,0,0,1,.53.17.32.32,0,0,1,.17.28.41.41,0,0,1-.23.36,1.44,1.44,0,0,1-.69.13,2.94,2.94,0,0,1-.44,0,1.9,1.9,0,0,1-.36-.09l-.29-.13L15.08,37l-.4.66a1.7,1.7,0,0,0,.45.26,3.27,3.27,0,0,0,.47.16,2.57,2.57,0,0,0,.44.08l.36,0a3.08,3.08,0,0,0,.78-.1,1.64,1.64,0,0,0,.58-.27,1.27,1.27,0,0,0,.35-.42,1.07,1.07,0,0,0,.13-.53,1,1,0,0,0-.37-.8"/>
        <path id="Fill-7" class="cls-1"
              d="M23.64,35.69a1.25,1.25,0,0,1,.12-.4A.89.89,0,0,1,24,35a.83.83,0,0,1,.32-.2,1.08,1.08,0,0,1,.42-.08.91.91,0,0,1,.68.27,1.22,1.22,0,0,1,.34.73ZM26.1,34.5a1.65,1.65,0,0,0-.61-.43,1.77,1.77,0,0,0-.77-.16,2,2,0,0,0-.81.16,1.65,1.65,0,0,0-.63.43,2,2,0,0,0-.42.67,2.63,2.63,0,0,0-.14.86,2.41,2.41,0,0,0,.15.87,1.91,1.91,0,0,0,.42.67A1.84,1.84,0,0,0,24,38a2.23,2.23,0,0,0,.83.15,2.82,2.82,0,0,0,.87-.13,2,2,0,0,0,.78-.44L26,37a2.05,2.05,0,0,1-.56.31,1.87,1.87,0,0,1-.61.11,1.4,1.4,0,0,1-.41-.06,1.22,1.22,0,0,1-.36-.18,1.24,1.24,0,0,1-.27-.32,1.25,1.25,0,0,1-.16-.46h3a.92.92,0,0,0,0-.16,1,1,0,0,0,0-.17,2.58,2.58,0,0,0-.14-.86,2.32,2.32,0,0,0-.39-.67Z"/>
        <path id="Fill-9" class="cls-1"
              d="M37.74,36.54a1.13,1.13,0,0,1-.25.41.94.94,0,0,1-.38.27,1.15,1.15,0,0,1-.5.1,1.19,1.19,0,0,1-.51-.1,1.17,1.17,0,0,1-.38-.28,1.27,1.27,0,0,1-.24-.41,1.59,1.59,0,0,1-.08-.5,1.69,1.69,0,0,1,.08-.5,1.38,1.38,0,0,1,.24-.41,1.17,1.17,0,0,1,.38-.28,1.19,1.19,0,0,1,.51-.1,1.15,1.15,0,0,1,.5.1,1.19,1.19,0,0,1,.38.27,1.22,1.22,0,0,1,.25.41,1.44,1.44,0,0,1,.09.51,1.36,1.36,0,0,1-.09.51Zm0-2a1.69,1.69,0,0,0-.52-.43,1.65,1.65,0,0,0-.74-.16,1.86,1.86,0,0,0-.79.16,1.79,1.79,0,0,0-.64.44,2,2,0,0,0-.43.67,2.34,2.34,0,0,0,0,1.7,1.93,1.93,0,0,0,.43.67,1.79,1.79,0,0,0,.64.44,1.86,1.86,0,0,0,.79.16,1.53,1.53,0,0,0,.74-.16,1.56,1.56,0,0,0,.52-.43v.49h.88V34h-.88Z"/>
        <path id="Fill-11" class="cls-1"
              d="M21.64,37.24a1.11,1.11,0,0,1-.42.08.66.66,0,0,1-.25,0,.57.57,0,0,1-.21-.13.68.68,0,0,1-.13-.24.87.87,0,0,1-.05-.34V34.82H22V34H20.58V32.8h-.89V34h-.8v.8h.8v1.77a1.62,1.62,0,0,0,.38,1.18,1.47,1.47,0,0,0,1.07.38,1.85,1.85,0,0,0,.69-.12l.37-.17-.3-.74a1.23,1.23,0,0,1-.26.12"/>
        <path id="Fill-13" class="cls-1"
              d="M29.57,33.91a1.6,1.6,0,0,0-.67.14,1.41,1.41,0,0,0-.5.5V34h-.8v4h.81V35.83a1.35,1.35,0,0,1,.07-.46,1.13,1.13,0,0,1,.2-.34.81.81,0,0,1,.3-.21,1,1,0,0,1,.39-.07,1.37,1.37,0,0,1,.34,0l.18,0,.26-.84-.22-.05a1.86,1.86,0,0,0-.36,0"/>
        <path id="Fill-15" class="cls-1"
              d="M41.79,33.91a1.6,1.6,0,0,0-.67.14,1.41,1.41,0,0,0-.5.5V34h-.8v4h.81V35.83a1.35,1.35,0,0,1,.07-.46,1,1,0,0,1,.2-.34.81.81,0,0,1,.3-.21,1,1,0,0,1,.39-.07,1.42,1.42,0,0,1,.34,0l.18,0,.26-.84-.22-.05a1.94,1.94,0,0,0-.36,0"/>
        <path id="Fill-17" class="cls-1"
              d="M45.86,36.54a1.13,1.13,0,0,1-.25.41.94.94,0,0,1-.38.27,1.15,1.15,0,0,1-.5.1,1.19,1.19,0,0,1-.51-.1,1.17,1.17,0,0,1-.38-.28,1.27,1.27,0,0,1-.24-.41,1.59,1.59,0,0,1-.08-.5,1.69,1.69,0,0,1,.08-.5,1.38,1.38,0,0,1,.24-.41,1.17,1.17,0,0,1,.38-.28,1.19,1.19,0,0,1,.51-.1,1.15,1.15,0,0,1,.5.1,1.19,1.19,0,0,1,.38.27,1.22,1.22,0,0,1,.25.41A1.44,1.44,0,0,1,46,36a1.36,1.36,0,0,1-.09.51Zm0-4.16V34.5a1.73,1.73,0,0,0-.53-.43,1.65,1.65,0,0,0-.74-.16,1.89,1.89,0,0,0-.79.16,1.79,1.79,0,0,0-.64.44,2,2,0,0,0-.43.67,2.48,2.48,0,0,0,0,1.7,1.93,1.93,0,0,0,.43.67,1.79,1.79,0,0,0,.64.44,1.89,1.89,0,0,0,.79.16,1.53,1.53,0,0,0,.74-.16,1.6,1.6,0,0,0,.53-.43v.49h.87V32.38Z"/>
        <path id="Fill-19" class="cls-1"
              d="M31.67,35.1a1.31,1.31,0,0,1,.4-.26,1.24,1.24,0,0,1,.5-.1,1.38,1.38,0,0,1,.55.1,1.22,1.22,0,0,1,.43.25l.42-.7a2.14,2.14,0,0,0-.53-.32,2.42,2.42,0,0,0-1.73,0,2.12,2.12,0,0,0-.68.45,2,2,0,0,0-.46.67,2.13,2.13,0,0,0-.16.84,2.1,2.1,0,0,0,.16.84,2,2,0,0,0,.46.67,2.12,2.12,0,0,0,.68.45,2.42,2.42,0,0,0,1.73,0,2.11,2.11,0,0,0,.53-.31L33.55,37a1.24,1.24,0,0,1-.43.26,1.59,1.59,0,0,1-.55.09,1.43,1.43,0,0,1-.5-.09,1.18,1.18,0,0,1-.4-.27,1.2,1.2,0,0,1-.26-.4,1.32,1.32,0,0,1-.1-.53,1.27,1.27,0,0,1,.1-.52,1.15,1.15,0,0,1,.26-.41"/>
        <g id="Group-23">
          <g class="cls-2">
            <path id="Fill-21" class="cls-1"
                  d="M48.57,37.77v.07h.08s0,0,0,0l0,0s0,0,0,0h-.11Zm.08-.09a.16.16,0,0,1,.11,0,.1.1,0,0,1,0,.09.09.09,0,0,1,0,.07s0,0-.08,0l.12.13h-.13l-.1-.13h0v.13h-.1v-.37Zm0,.48a.2.2,0,0,0,.11,0l.1-.06.06-.1a.36.36,0,0,0,0-.11.5.5,0,0,0,0-.12l-.06-.09-.1-.07-.11,0-.12,0-.1.07-.06.09a.5.5,0,0,0,0,.12.36.36,0,0,0,0,.11l.06.1.1.06a.23.23,0,0,0,.12,0Zm0-.7a.45.45,0,0,1,.16,0,.42.42,0,0,1,.14.09.41.41,0,0,1,.08.13.29.29,0,0,1,0,.16A.32.32,0,0,1,49,38a.57.57,0,0,1-.08.13l-.14.09a.45.45,0,0,1-.16,0,.47.47,0,0,1-.17,0l-.14-.09L48.23,38a.45.45,0,0,1,0-.16.41.41,0,0,1,0-.16.73.73,0,0,1,.09-.13.42.42,0,0,1,.14-.09.47.47,0,0,1,.17,0Z"/>
          </g>
        </g>
        <g id="Group-26">
          <g class="cls-3">
            <path id="Fill-24" class="cls-4"
                  d="M18.84,15.18A15.15,15.15,0,0,1,24.6,3.28a15.19,15.19,0,1,0,0,23.81,15.15,15.15,0,0,1-5.76-11.91"/>
          </g>
        </g>
        <path id="Fill-27" class="cls-5"
              d="M18.84,15.18A15.15,15.15,0,0,0,24.6,27.09a15.17,15.17,0,0,0,0-23.81,15.15,15.15,0,0,0-5.76,11.9"/>
        <g id="Group-31">
          <g class="cls-6">
            <path id="Fill-29" class="cls-7"
                  d="M49.13,23.4V23l-.13.34h-.14L48.73,23v.4H48.6v-.57h.19l.14.36.14-.36h.19v.57Zm-1,0V23H48v-.12h.5V23h-.18v.45Z"/>
          </g>
        </g>
        <g id="Group-34">
          <g class="cls-8">
            <path id="Fill-32" class="cls-7"
                  d="M34,0A15.13,15.13,0,0,0,24.6,3.28a15.17,15.17,0,0,1,0,23.81A15.18,15.18,0,1,0,34,0"/>
          </g>
        </g>
      </g>
    </g>
  </g>
</svg>
