<?xml version="1.0" encoding="UTF-8"?>
<svg width="24px" height="15px" viewBox="0 0 24 15" version="1.1" xmlns="http://www.w3.org/2000/svg"
>
  <g stroke="none" stroke-width="1" fill="none" fill-rule="evenodd">
    <g transform="translate(-7.000000, -14.000000)" fill="#FFFFFF">
      <g transform="translate(-3.000000, -3.000000)">
        <path
          d="M21.5889244,31.1777778 L22.9771022,31.1777778 C22.9771022,31.1777778 23.3972356,31.1317778 23.61088,30.9007556 C23.8081689,30.6881333 23.8020356,30.2904889 23.8020356,30.2904889 C23.8020356,30.2904889 23.7744356,28.428 24.6392356,28.1530222 C25.4917689,27.8821333 26.5865689,29.9541778 27.7467911,30.7504889 C28.62488,31.3525778 29.2913689,31.2207111 29.2913689,31.2207111 L32.3938133,31.1777778 C32.3938133,31.1777778 34.01608,31.0776 33.2473689,29.8008444 C33.1839911,29.6976 32.7986133,28.8573333 30.9402133,27.1318222 C28.9949244,25.3265778 29.2555911,25.6189333 31.5985244,22.4950222 C33.0255467,20.5936889 33.5959467,19.4324444 33.41808,18.9346222 C33.2483911,18.4613333 32.1985689,18.5860444 32.1985689,18.5860444 L28.7056356,18.6075111 C28.7056356,18.6075111 28.4459911,18.5727556 28.2538133,18.6872444 C28.0667467,18.7996889 27.9461244,19.0624 27.9461244,19.0624 C27.9461244,19.0624 27.3931022,20.5333778 26.65608,21.7856 C25.1002578,24.4270222 24.4787467,24.5670667 24.2242133,24.4024889 C23.6323467,24.0201778 23.7805689,22.8671111 23.7805689,22.0472889 C23.7805689,19.4876444 24.1679911,18.4214667 23.0241244,18.1444444 C22.64488,18.0524444 22.3647911,17.9921333 21.39368,17.9819111 C20.1475911,17.9696444 19.0926578,17.986 18.4946578,18.2783556 C18.0980356,18.4736 17.7913689,18.9070222 17.9784356,18.9325778 C18.2084356,18.9622222 18.7318133,19.0726222 19.0088356,19.4498222 C19.3666133,19.9374222 19.3543467,21.0312 19.3543467,21.0312 C19.3543467,21.0312 19.5598133,24.0436889 18.8739022,24.4188444 C18.40368,24.6754222 17.7566133,24.1510222 16.37048,21.7549333 C15.6600356,20.5272444 15.1233689,19.1697333 15.1233689,19.1697333 C15.1233689,19.1697333 15.0201244,18.9162222 14.8351022,18.7812889 C14.6122578,18.6167111 14.2984356,18.5645778 14.2984356,18.5645778 L10.97928,18.5860444 C10.97928,18.5860444 10.4814578,18.6003556 10.29848,18.8170667 C10.1349244,19.0102667 10.2851911,19.4079111 10.2851911,19.4079111 C10.2851911,19.4079111 12.88368,25.4880889 15.8266578,28.5527111 C18.5253244,31.3617778 21.5889244,31.1777778 21.5889244,31.1777778"></path>
      </g>
    </g>
  </g>
</svg>
