<svg id="Слой_1" data-name="Слой 1" xmlns="http://www.w3.org/2000/svg" viewBox="0 0 100.31 49.21">
  <defs>
    <style>.cls-1{fill:#fff;}</style>
  </defs>
  <title>Монтажная область 3</title>
  <polygon class="cls-1" points="40.14 48.87 46.45 48.87 50.4 25.71 44.08 25.71 40.14 48.87"/>
  <path class="cls-1"
        d="M63.12,35c-2.21-1.07-3.56-1.79-3.54-2.87s1.14-2,3.61-2a11.54,11.54,0,0,1,4.73.88l.56.27.86-5a16.29,16.29,0,0,0-5.66-1C57.44,25.31,53.05,28.45,53,33c0,3.33,3.14,5.18,5.53,6.29s3.29,1.86,3.27,2.87c0,1.55-2,2.26-3.77,2.26a13.27,13.27,0,0,1-5.94-1.21l-.81-.37L50.4,48a19.89,19.89,0,0,0,7,1.24c6.63,0,10.94-3.11,11-7.91C68.44,38.66,66.76,36.66,63.12,35Z"/>
  <path class="cls-1"
        d="M85.52,25.73H80.64a3.14,3.14,0,0,0-3.3,1.92L68,48.87h6.62l1.33-3.48H84c.19.81.77,3.47.77,3.47h5.86ZM77.74,40.66l2.51-6.48c0,.07.52-1.34.84-2.21l.43,2s1.2,5.53,1.46,6.69Z"/>
  <path class="cls-1"
        d="M34.85,25.73,28.67,41.52,28,38.31h0L25.79,27.67c-.38-1.47-1.49-1.91-2.86-2H12.76l-.08.49a26.06,26.06,0,0,1,6.63,2.54l5.61,20.11h6.67l9.94-23.11Z"/>
  <path class="cls-1" d="M2.24.13,6.65,13.48,11.11.13h2.13L7.77,15.46H5.45L0,.13Z"/>
  <path class="cls-1"
        d="M18,15.82c-3.27,0-5.23-2.15-5.23-5.77S14.9,4,18,4c3.66,0,5,2.9,5,6.11v.26H14.66l0,.13c0,2.37,1.31,3.79,3.46,3.79,1.6,0,2.48-.69,3-2.37h1.78A4.51,4.51,0,0,1,18,15.82ZM17.93,5.53c-1.78,0-3,1.29-3.27,3.38h6.46C21,6.8,19.76,5.53,17.93,5.53Z"/>
  <path class="cls-1"
        d="M30.74,6a2.48,2.48,0,0,0-.47,0c-3,0-3.56,2.31-3.56,4.81v4.69H24.88V4.35h1.75V6.74a4,4,0,0,1,4.11-2.65Z"/>
  <path class="cls-1" d="M34.05,2.37H32.2V.13h1.85Zm0,13.09H32.2V4.35h1.85Z"/>
  <path class="cls-1"
        d="M41.91,1.68a6.5,6.5,0,0,0-1-.09c-1.16,0-1.4.26-1.4,1.49V4.35h2.13V5.86H39.5v9.6H37.65V5.86H35.78V4.35h1.87V2.86C37.65.8,38.77,0,40.73,0a7.4,7.4,0,0,1,1.18.09Z"/>
  <path class="cls-1" d="M45.2,2.37H43.35V.13H45.2Zm0,13.09H43.35V4.35H45.2Z"/>
  <path class="cls-1"
        d="M52.7,15.82c-3.28,0-5.24-2.15-5.24-5.77s2.09-6,5.17-6c3.66,0,5,2.9,5,6.11v.26H49.32l0,.13c0,2.37,1.32,3.79,3.47,3.79a2.81,2.81,0,0,0,3-2.37h1.79A4.51,4.51,0,0,1,52.7,15.82ZM52.59,5.53c-1.79,0-3,1.29-3.27,3.38h6.45C55.6,6.8,54.42,5.53,52.59,5.53Z"/>
  <path class="cls-1"
        d="M69.62,15.46H67.89V13.82a3.86,3.86,0,0,1-3.66,1.94c-3.14,0-5.14-2.26-5.14-5.88C59.09,6.74,60.72,4,64.15,4a4.16,4.16,0,0,1,3.64,1.8V.13h1.83ZM61,9.84c0,2.69,1.34,4.41,3.45,4.41s3.4-1.63,3.4-4.35c0-2.21-1-4.3-3.45-4.3C62.3,5.6,61,7.23,61,9.84Z"/>
  <path class="cls-1"
        d="M80.16,5.88a4.18,4.18,0,0,1,3.68-1.83c3,0,5,2.28,5,5.81s-2,5.92-5.12,5.92a3.94,3.94,0,0,1-3.69-1.94v1.62H78.33V.13h1.83ZM80.1,10c0,2.63,1.33,4.26,3.46,4.26S87,12.53,87,9.88,85.63,5.6,83.56,5.6C81,5.6,80.1,7.77,80.1,10Z"/>
  <path class="cls-1"
        d="M95.55,16.88c-.6,1.57-1.22,3.06-3.2,3.06a5.59,5.59,0,0,1-1.36-.2V18.11a4,4,0,0,0,1.18.23,1.44,1.44,0,0,0,1.3-.92l.86-2-4.42-11H92l3.29,8.85L98.4,4.35h1.91Z"/>
</svg>
