<svg id="Слой_1" data-name="Слой 1" xmlns="http://www.w3.org/2000/svg"
     viewBox="0 0 71 22">
  <defs>
    <style>.cls-1{fill:#fff;}.cls-2{mask:url(#mask);}.cls-3{mask:url(#mask-2-2);}.cls-4{mask:url(#mask-3);}</style>
    <mask id="mask" x="34.07" y="0" width="17.1" height="21.59" maskUnits="userSpaceOnUse">
      <g id="mask-2">
        <polygon id="path-1" class="cls-1" points="51.17 21.59 34.07 21.59 34.07 0 51.17 0 51.17 21.59"/>
      </g>
    </mask>
    <mask id="mask-2-2" x="49.94" y="0.38" width="20.47" height="20.9" maskUnits="userSpaceOnUse">
      <g id="mask-4">
        <polygon id="path-3" class="cls-1" points="70.4 21.28 70.4 0.38 49.94 0.38 49.94 21.28 70.4 21.28"/>
      </g>
    </mask>
    <mask id="mask-3" x="0" y="0.37" width="13.85" height="11.38" maskUnits="userSpaceOnUse">
      <g id="mask-6">
        <polygon id="path-5" class="cls-1" points="0 11.74 0 0.37 13.85 0.37 13.85 11.74 0 11.74"/>
      </g>
    </mask>
  </defs>
  <title>Монтажная область 1</title>
  <g id="Desktop">
    <g id="Basket-2">
      <g id="Page-1">
        <polygon id="Fill-1" class="cls-1" points="24.8 21.28 28.37 0.36 34.07 0.36 30.5 21.28 24.8 21.28"/>
        <g id="Group-5">
          <g class="cls-2">
            <path id="Fill-3" class="cls-1"
                  d="M51.17.88A14.58,14.58,0,0,0,46.06,0c-5.63,0-9.6,2.84-9.63,6.9,0,3,2.83,4.68,5,5.68s3,1.68,3,2.6c0,1.4-1.77,2-3.41,2a12,12,0,0,1-5.37-1.1l-.73-.33-.8,4.68a18.19,18.19,0,0,0,6.35,1.12c6,0,9.88-2.81,9.92-7.15,0-2.38-1.49-4.19-4.78-5.68-2-1-3.21-1.61-3.2-2.59s1-1.8,3.26-1.8a10.55,10.55,0,0,1,4.27.8l.51.24L51.17.88"/>
          </g>
        </g>
        <g id="Group-8">
          <g class="cls-3">
            <path id="Fill-6" class="cls-1"
                  d="M58.76,13.86,61,8c0,.05.47-1.21.76-2l.38,1.8s1.09,5,1.32,6Zm7-13.48h-4.4a2.85,2.85,0,0,0-3,1.74L49.94,21.28h6l1.2-3.14h7.3c.17.73.69,3.13.69,3.13H70.4L65.79.38Z"/>
          </g>
        </g>
        <path id="Fill-9" class="cls-1"
              d="M20,.38,14.44,14.64l-.59-2.9C12.81,8.4,9.57,4.78,6,3l5.1,18.29h6l9-20.87H20"/>
        <g id="Group-13">
          <g class="cls-4">
            <path id="Fill-11" class="cls-1"
                  d="M9.26.37H.07L0,.8C7.15,2.53,11.88,6.71,13.85,11.74l-2-9.61A2.39,2.39,0,0,0,9.26.37"/>
          </g>
        </g>
      </g>
    </g>
  </g>
</svg>
