<svg id="Слой_1" data-name="Слой 1" xmlns="http://www.w3.org/2000/svg" viewBox="0 0 156.1 49.27">
  <defs>
    <style>.cls-1{fill:#e61b25;}.cls-2{fill:#f79e1b;}</style>
  </defs>
  <title>Монтажная область 4</title>
  <path class="cls-1" d="M22.08,20.41h-3.2V4.08l-5.8,14.39H9.7L3.91,4.24V20.41H.7V.57H5.62l5.77,14.17L17.16.57h4.92Z"/>
  <path class="cls-1"
        d="M40.14,20.41h-3V18.78a5.15,5.15,0,0,1-4.27,2,6.82,6.82,0,0,1-6.79-7.15,6.81,6.81,0,0,1,6.79-7.14,5.16,5.16,0,0,1,4.27,2V6.83h3Zm-11-6.79a4.1,4.1,0,1,0,8.19,0,4.1,4.1,0,1,0-8.19,0Z"/>
  <path class="cls-1"
        d="M54,10.23a8.75,8.75,0,0,0-4.19-1.16c-1.62,0-2.57.65-2.57,1.62s1,1.22,2.24,1.4l1.4.21c3,.43,4.72,1.69,4.72,4,0,2.6-2.26,4.43-6.18,4.43A10,10,0,0,1,43.63,19L45,16.78a6.79,6.79,0,0,0,4.48,1.39c2,0,3.09-.63,3.09-1.66,0-.76-.73-1.27-2.35-1.5l-1.42-.18c-3-.41-4.6-1.8-4.6-4,0-2.69,2.15-4.35,5.61-4.35a10.39,10.39,0,0,1,5.5,1.43Z"/>
  <path class="cls-1"
        d="M68.38,9.53h-5.2v5.91c0,1.83,1,2.53,2.15,2.53a5.47,5.47,0,0,0,2.74-.92l1.18,2.37a7.35,7.35,0,0,1-4.17,1.35c-3.08,0-4.88-1.66-4.88-5.28v-6H57.49V6.83H60.2V2.72h3V6.83h5.2Z"/>
  <path class="cls-1"
        d="M84.2,13.61c0,.38,0,.76-.06,1.1h-10a3.83,3.83,0,0,0,4,3.46,6.49,6.49,0,0,0,3.92-1.43l1.48,2.11A8.18,8.18,0,0,1,78,20.77c-4.06,0-6.94-2.84-6.94-7.15s2.76-7.14,6.76-7.14C81.58,6.48,84.19,9.37,84.2,13.61ZM74.12,12.46h7c-.33-2.11-1.56-3.35-3.45-3.35C75.61,9.11,74.43,10.48,74.12,12.46Z"/>
  <path class="cls-1"
        d="M97,6.86,96.32,9.8a5.21,5.21,0,0,0-2.25-.5c-1.89,0-3.23,1.33-3.23,3.64v7.47h-3V6.83h2.94V8.36a4.53,4.53,0,0,1,3.94-1.88A5.89,5.89,0,0,1,97,6.86Z"/>
  <path class="cls-1"
        d="M110.72,8.65l-1.89,2a4.57,4.57,0,0,0-3.26-1.4,4.06,4.06,0,0,0-4,4.35,4.05,4.05,0,0,0,4,4.35,5,5,0,0,0,3.33-1.41l1.82,2a6.52,6.52,0,0,1-5.07,2.17,6.85,6.85,0,0,1-7.14-7.15,6.84,6.84,0,0,1,7.14-7.14A6.48,6.48,0,0,1,110.72,8.65Z"/>
  <path class="cls-1"
        d="M126.8,20.41h-3V18.78a5.15,5.15,0,0,1-4.27,2,6.82,6.82,0,0,1-6.79-7.15,6.81,6.81,0,0,1,6.79-7.14,5.16,5.16,0,0,1,4.27,2V6.83h3Zm-11-6.79a4.1,4.1,0,1,0,8.19,0,4.1,4.1,0,1,0-8.19,0Z"/>
  <path class="cls-1"
        d="M140.61,6.86,139.9,9.8a5.21,5.21,0,0,0-2.25-.5c-1.89,0-3.23,1.33-3.23,3.64v7.47h-3V6.83h2.94V8.36a4.53,4.53,0,0,1,3.94-1.88A5.89,5.89,0,0,1,140.61,6.86Z"/>
  <path class="cls-1"
        d="M153.14,8.48V0h3V20.41h-3V18.78a5.13,5.13,0,0,1-4.26,2,6.82,6.82,0,0,1-6.8-7.15,6.82,6.82,0,0,1,6.8-7.14A5.14,5.14,0,0,1,153.14,8.48Zm-8,5.14a4.11,4.11,0,1,0,8.2,0,4.11,4.11,0,1,0-8.2,0Z"/>
  <path class="cls-2"
        d="M14.08,33.45a10.26,10.26,0,0,0-5.58-1.7c-2.65,0-4.46,1.15-4.46,3C4,36.35,5.58,37,8.17,37.36l1.37.18c3.22.44,6.39,1.78,6.39,5.46,0,4-3.65,6.25-7.95,6.25a12.91,12.91,0,0,1-8-2.66L1.74,44A10.06,10.06,0,0,0,8,46.22c2.59,0,4.63-1.11,4.63-2.93,0-1.56-1.56-2.29-4.46-2.68l-1.55-.22C3.64,40,.71,38.59.71,34.91c0-4,3.53-6.2,7.82-6.2a12.5,12.5,0,0,1,7.18,2.14Z"/>
  <path class="cls-2"
        d="M31.37,42.1c0,.38,0,.76-.06,1.1h-10a3.84,3.84,0,0,0,4,3.46,6.52,6.52,0,0,0,3.93-1.43l1.47,2.11a8.17,8.17,0,0,1-5.59,1.91c-4.06,0-6.94-2.83-6.94-7.14S21,35,25,35C28.75,35,31.36,37.86,31.37,42.1ZM21.29,41h7.05c-.33-2.12-1.56-3.35-3.45-3.35C22.78,37.6,21.6,39,21.29,41Z"/>
  <path class="cls-2"
        d="M45.43,37.13l-1.9,2a4.55,4.55,0,0,0-3.26-1.4,4,4,0,0,0-4,4.35,4,4,0,0,0,4,4.35A5,5,0,0,0,43.61,45l1.82,2a6.49,6.49,0,0,1-5.07,2.17,6.85,6.85,0,0,1-7.15-7.14A6.86,6.86,0,0,1,40.36,35,6.48,6.48,0,0,1,45.43,37.13Z"/>
  <path class="cls-2"
        d="M60.35,43.14c0,4.33-3.12,6.11-6.3,6.11s-6.29-1.78-6.29-6.11V35.32h3v7.56c0,2.62,1.46,3.58,3.31,3.58s3.32-1,3.32-3.58V35.32h3Z"/>
  <path class="cls-2"
        d="M73.16,35.35l-.7,2.93a5.43,5.43,0,0,0-2.26-.49c-1.88,0-3.23,1.33-3.23,3.64V48.9H64V35.32h2.93v1.53A4.53,4.53,0,0,1,70.88,35,5.89,5.89,0,0,1,73.16,35.35Z"/>
  <path class="cls-2"
        d="M87,42.1c0,.38,0,.76-.06,1.1h-10a3.84,3.84,0,0,0,4,3.46,6.49,6.49,0,0,0,3.92-1.43l1.48,2.11a8.17,8.17,0,0,1-5.59,1.91c-4.06,0-6.94-2.83-6.94-7.14S76.55,35,80.55,35C84.35,35,87,37.86,87,42.1ZM76.89,41h7c-.33-2.12-1.56-3.35-3.45-3.35C78.38,37.6,77.2,39,76.89,41Z"/>
  <path class="cls-2"
        d="M107.7,32.84,105,34.63a6.59,6.59,0,0,0-5.54-2.87,6.85,6.85,0,0,0-7,7.22,6.85,6.85,0,0,0,7,7.21A6.51,6.51,0,0,0,105,43.34l2.61,1.92a9.65,9.65,0,0,1-8.13,4A10,10,0,0,1,89.08,39a10,10,0,0,1,10.4-10.29A9.45,9.45,0,0,1,107.7,32.84Z"/>
  <path class="cls-2"
        d="M124,42.11A7.31,7.31,0,1,1,116.7,35,7.06,7.06,0,0,1,124,42.11Zm-11.57,0a4.26,4.26,0,1,0,4.25-4.35A4.16,4.16,0,0,0,112.45,42.11Z"/>
  <path class="cls-2"
        d="M136.92,37V28.49h3V48.9h-3V47.27a5.17,5.17,0,0,1-4.27,2,6.81,6.81,0,0,1-6.79-7.14A6.82,6.82,0,0,1,132.65,35,5.18,5.18,0,0,1,136.92,37Zm-8,5.15a4.1,4.1,0,1,0,8.19,0,4.1,4.1,0,1,0-8.19,0Z"/>
  <path class="cls-2"
        d="M155.88,42.1c0,.38,0,.76,0,1.1h-10a3.84,3.84,0,0,0,4,3.46,6.52,6.52,0,0,0,3.93-1.43l1.47,2.11a8.16,8.16,0,0,1-5.58,1.91c-4.07,0-7-2.83-7-7.14S145.47,35,149.46,35C153.26,35,155.87,37.86,155.88,42.1ZM145.81,41h7c-.33-2.12-1.56-3.35-3.44-3.35C147.29,37.6,146.12,39,145.81,41Z"/>
</svg>
