<?xml version="1.0" encoding="utf-8"?>
<!-- Generator: Adobe Illustrator 23.0.2, SVG Export Plug-In . SVG Version: 6.00 Build 0)  -->
<svg version="1.1" id="Слой_1" xmlns="http://www.w3.org/2000/svg"  x="0px" y="0px"
	 viewBox="0 0 322.74 56.95" style="enable-background:new 0 0 322.74 56.95;" xml:space="preserve">
<style type="text/css">
	.st0{fill:#ED1B35;}
	.st1{fill:#FFFFFF;}
</style>
<path class="st0" d="M293.5,18.43h2.46c0.29,0,0.54-0.2,0.62-0.48c0.07-0.26,0.1-0.52,0.1-0.8c0-0.28-0.04-0.54-0.1-0.8
	c-0.07-0.28-0.33-0.48-0.62-0.48h-1.21l0,0h-1.95c-0.45,0-0.83,0.34-0.88,0.79c0,0,0,0,0,0c-0.03,0.3,0.08,0.71,0.31,1.12
	c0.03,0.04,0.06,0.08,0.09,0.12C292.62,18.24,293.05,18.43,293.5,18.43 M304.69,26.96c-2-1.34-3.84-2.9-5.48-4.64
	c-0.45-0.47-1.07-0.74-1.72-0.74h-6.12c-0.7,0-1.39-0.16-2-0.45l-23.54,8.73c0,0,0,0,0,0c0.49,10.31,6.46,19.18,15.06,23.76
	c0,0,0,0,0,0c12.19-2.99,21.73-12.71,24.47-25C305.49,27.98,305.23,27.32,304.69,26.96 M294.26,0c-15.69,0-28.42,12.69-28.48,28.37
	c0,0,0,0,0,0l20.95-10.41c-0.12-0.08-0.23-0.17-0.33-0.27c-0.07-0.07-0.1-0.16-0.09-0.26c0.01-0.09,0.06-0.18,0.14-0.23
	c1.73-1.17,3.33-2.52,4.76-4.03c0.25-0.27,0.53-0.54,0.79-0.79c0,0,0,0,0.01,0c0.31-0.29,0.69-0.49,1.1-0.58
	c1.34-0.3,4.51-1.03,6.58-1.75c0.86-0.3,1.79-0.35,2.67-0.13c0.13,0.03,0.25,0.07,0.38,0.1l6.99-3.48c0.05-0.02,0.11-0.02,0.15,0.01
	c0.05,0.03,0.08,0.08,0.08,0.14v2.25c0,0.06-0.04,0.12-0.09,0.14l-4.41,1.98c0.61,0.31,1.22,0.68,1.8,1.1l3.29-1.36
	c0.06-0.02,0.13-0.01,0.17,0.03l1.57,1.57c0.04,0.04,0.05,0.09,0.04,0.15c-0.01,0.05-0.05,0.1-0.1,0.11l-3.06,1.13
	c2,2.04,3.18,4.58,3.58,6.3c1.76,6.76-0.21,21.83-9.17,35.3v0c0,0,0,0,0,0c11.14-3.87,19.14-14.45,19.14-26.91
	C322.74,12.75,309.99,0,294.26,0"/>
<path d="M303.6,55.38L303.6,55.38c-2.93,1.02-6.07,1.57-9.34,1.57c-4.84,0-9.39-1.21-13.38-3.34c12.19-3,21.73-12.71,24.47-25
	c0.14-0.64-0.12-1.29-0.66-1.66c-2-1.34-3.84-2.9-5.48-4.64c-0.45-0.47-1.07-0.74-1.72-0.74h-6.12c-0.71,0-1.39-0.16-2-0.45
	l-23.54,8.73c-0.01-0.12-0.02-0.45-0.02-0.69c-0.01-0.43-0.01-0.51-0.01-0.8l43.95-21.85c0.05-0.02,0.11-0.02,0.15,0.01
	c0.05,0.03,0.07,0.08,0.07,0.13v2.25c0,0.06-0.04,0.12-0.09,0.15l-15.13,6.81h-1.95c-0.45,0-0.83,0.34-0.88,0.79v0
	c-0.1,0.98,1.26,3.03,3.59,3.13l5.28,0.22c1.1,0.05,2.15,0.47,2.96,1.21c1.14,1.02,2.37,1.96,3.67,2.79c2.1,1.34,4.89,0.16,5.4-2.28
	c0.11-0.64,0.07-1.16-0.07-1.72C314.55,26.75,312.58,41.87,303.6,55.38 M298.27,15.87l12.29-5.09c0.06-0.02,0.13-0.01,0.17,0.03
	l1.57,1.57c0.04,0.04,0.05,0.09,0.04,0.15c-0.01,0.05-0.05,0.1-0.1,0.11l-7.11,2.64c-1.06,0.39-2.17,0.59-3.3,0.59H298.27z
	 M240.95,33.58h-8.36c-2.01,0-4.26-1.38-4.31-4.56c0-3.01,1.92-4.47,4.31-4.47h8.36V33.58z M222.51,29.02
	c0,3.43,1.55,5.98,3.89,7.53c0.45,0.28,1.39,0.8,2.9,1.19c-3.35,4.6-6.64,5.67-8.29,6.12l1.55,4.64c6.27-0.45,9.77-5.3,12.76-10.25
	h5.64v9.7h5.85V19.48h-13.97C227.61,19.48,222.51,22.66,222.51,29.02 M145.9,34.79c0,4.56-2.17,8.32-8.07,8.32
	c-6.02,0-8.2-3.76-8.2-8.32v-2.22c0-4.6,2.17-8.36,8.2-8.36c5.9,0,8.07,3.76,8.07,8.36V34.79z M137.83,18.82
	c-9.03,0-14.22,5.85-14.22,13.76v2.22c0,7.94,5.18,13.84,14.22,13.84c8.86,0,14.09-5.9,14.09-13.84v-2.22
	C151.92,24.67,146.69,18.82,137.83,18.82 M178.39,34.79c0,3.35-0.96,8.57-6.73,8.57c-2.88,0-6.77-0.84-8.2-3.43v-11.5
	c1.51-2.09,4.26-4.18,8.2-4.18c5.27,0,6.73,4.43,6.73,8.53V34.79z M171.66,18.94c-3.05,0-6.77,1.42-8.57,3.6v-3.05h-5.48v37.47h5.85
	V46.04c1.92,2.38,5.6,2.72,8.2,2.72c7.4,0,12.55-4.06,12.55-13.92v-2.05C184.2,22.58,178.47,18.94,171.66,18.94 M61.05,42.61
	c0.63,0.29,1.25,0.54,1.97,0.75l-1.67,5.1c-6.19-0.17-10.49-7.15-13.26-12.25h-4.52v11.75h-5.85V20.03l5.85-1.04v12h4.1l8.61-12
	l5.77,1.09L52.7,32.94C54.67,36.5,56.95,40.54,61.05,42.61 M208.91,20.07l6.57-0.84v28.73h-5.77V27.49l-13.8,20.47h-5.77V19.99
	l5.77-1v20.39L208.91,20.07z M86.56,20.07l6.57-0.84v28.73h-5.77V27.49l-13.8,20.47h-5.77V19.99l5.77-1v20.39L86.56,20.07z
	 M97.68,19.48h25.55l-1.67,5.1h-8.82v23.37h-5.85V24.59h-9.2V19.48z M23.84,29.69h-10.5c-3.72,0-6.52-2.63-6.52-6.57
	c0-4.01,2.8-6.52,6.52-6.52h10.5V29.69z M0.38,23.12c0,5.73,4.1,10.79,9.87,11.75C7.57,38.89,4.39,42.11,0,43.28l1.71,5.18
	c7.32-0.25,11.58-7.32,15.22-13.21h6.9v12.71h5.94V11H13.34C5.73,11,0.42,16.26,0.38,23.12"/>
<path class="st1" d="M312.75,20.01c-0.09-0.36-0.22-0.74-0.38-1.18l0,0c-0.68-1.87-1.76-3.6-3.19-5.06l-4.05,1.5
	c-1.06,0.39-2.17,0.59-3.3,0.59h-3.55l8.99-3.73c-0.59-0.42-1.2-0.79-1.8-1.1l-10.72,4.83h1.22c0.29,0,0.54,0.2,0.62,0.48
	c0.07,0.26,0.1,0.52,0.1,0.8c0,0.28-0.04,0.54-0.1,0.8c-0.07,0.28-0.33,0.48-0.62,0.48h-2.46c-0.45,0-0.89-0.19-1.19-0.53
	c-0.03-0.04-0.07-0.08-0.09-0.12c0.66,1.15,1.87,1.95,3.29,2.01l5.28,0.22c1.1,0.05,2.15,0.47,2.96,1.21
	c1.14,1.03,2.37,1.96,3.67,2.79c2.1,1.34,4.89,0.16,5.4-2.28C312.93,21.09,312.89,20.57,312.75,20.01 M302.74,10l-16.01,7.96
	c-0.12-0.08-0.23-0.17-0.33-0.27c-0.07-0.07-0.1-0.16-0.09-0.26c0.01-0.09,0.06-0.18,0.14-0.23c1.73-1.17,3.33-2.52,4.76-4.03
	c0.25-0.27,0.53-0.54,0.8-0.79c0,0,0,0,0,0c0.31-0.29,0.69-0.49,1.1-0.58c1.34-0.3,4.51-1.03,6.59-1.76
	c0.86-0.3,1.78-0.35,2.67-0.13C302.49,9.93,302.62,9.96,302.74,10"/>
</svg>
