<?xml version="1.0" encoding="utf-8"?>
<!-- Generator: Adobe Illustrator 23.0.2, SVG Export Plug-In . SVG Version: 6.00 Build 0)  -->
<svg version="1.1" id="Слой_1" xmlns="http://www.w3.org/2000/svg"  x="0px" y="0px"
	 viewBox="0 0 58.02 58.02" style="enable-background:new 0 0 58.02 58.02;" xml:space="preserve">
<style type="text/css">
	.st0{fill:none;}

  svg {fill: #2b2d2f; }
</style>
<path class="st0" d="M34.57,11.06c-2.1,0.73-5.32,1.48-6.61,1.76c-0.37,0.08-0.63,0.24-0.89,0.47c-0.98,0.93-2.44,2.69-5.4,4.72
	c0.11,0.09,0.23,0.16,0.35,0.22l14.74-7.33C36.02,10.76,35.28,10.81,34.57,11.06z"/>
<path class="st0" d="M35.52,20.06c1.2,0.05,2.35,0.52,3.25,1.32c1.12,1.01,2.33,1.92,3.59,2.73c2.21,1.41,5.32-0.45,4.58-3.46
	c-0.43-1.79-1.66-4.22-3.58-6.12l-3.54,1.31c-1.06,0.39-2.16,0.59-3.29,0.59h-5.23c0.11,0.11,0.2,0.25,0.24,0.41
	c0.07,0.28,0.11,0.57,0.11,0.86c0,0.29-0.04,0.58-0.11,0.86c-0.1,0.39-0.45,0.66-0.85,0.66h-2.28c0.54,0.38,1.18,0.61,1.84,0.63
	L35.52,20.06z"/>
<path class="st0" d="M31.08,18.43c0.06-0.24,0.09-0.49,0.09-0.74c0-0.25-0.03-0.5-0.09-0.73c-0.04-0.17-0.2-0.29-0.38-0.29h-3.15
	c-0.31,0-0.6,0.22-0.64,0.59c-0.04,0.86,0.59,1.47,1.34,1.47h2.45C30.88,18.72,31.03,18.6,31.08,18.43z"/>
<path class="st0" d="M39.96,28.17c-0.12-0.29-0.32-0.54-0.58-0.72c-1.97-1.32-3.81-2.88-5.46-4.62c-0.44-0.47-1.07-0.73-1.71-0.73
	h-6.09c-0.69,0-1.36-0.15-1.99-0.44l-23.19,8.6c0.45,10.26,6.43,19.11,15.02,23.63c5.85-1.49,11.18-4.55,15.43-8.89
	c4.32-4.41,7.31-9.91,8.65-15.9C40.11,28.79,40.08,28.47,39.96,28.17z"/>
<path class="st0" d="M30.57,15.94h3.05c0.34,0,0.68-0.07,1-0.2l6.79-2.82c-0.57-0.39-1.18-0.74-1.82-1.05L30.57,15.94z"/>
<path class="st0" d="M29.01,0.91c-15.4,0-27.94,12.45-28.1,27.82L21.5,18.49c-0.11-0.08-0.22-0.16-0.32-0.26
	c-0.07-0.07-0.1-0.16-0.1-0.26c0.01-0.1,0.06-0.18,0.14-0.24c3.03-2.05,4.48-3.81,5.53-4.8l0,0c0.31-0.29,0.69-0.49,1.1-0.58
	c1.28-0.28,4.48-1.02,6.55-1.74c0.5-0.18,1.03-0.27,1.56-0.27c0.71,0,1.17,0.15,1.48,0.23L44.4,7.1c0.05-0.02,0.11-0.02,0.16,0.01
	c0.05,0.03,0.08,0.08,0.08,0.14v2.24c0,0.07-0.04,0.12-0.1,0.15l-4.37,1.97c0.63,0.32,1.23,0.69,1.78,1.09l3.27-1.36
	c0.02-0.01,0.04-0.01,0.06-0.01c0.04,0,0.09,0.02,0.12,0.05l1.56,1.56c0.04,0.04,0.06,0.1,0.04,0.15c-0.01,0.06-0.05,0.1-0.1,0.12
	l-3.04,1.13c2.04,2.09,3.16,4.6,3.55,6.2c0,0,0,0,0,0.01c0.45,1.7,0.66,3.93,0.59,6.43c-0.07,2.7-0.45,5.6-1.12,8.63
	c-1.07,4.87-3.41,12.25-8.41,19.86c10.85-3.89,18.64-14.28,18.64-26.46C57.11,13.51,44.5,0.91,29.01,0.91z"/>
<path d="M29.01,0C13.01,0,0,13.01,0,29.01C0,45,13.01,58.02,29.01,58.02S58.02,45,58.02,29.01C58.02,13.01,45,0,29.01,0z
	 M15.96,53.89C7.36,49.36,1.39,40.52,0.94,30.26l23.19-8.6c0.63,0.29,1.3,0.44,1.99,0.44h6.09c0.64,0,1.27,0.27,1.71,0.73
	c1.65,1.74,3.49,3.3,5.46,4.62c0.26,0.18,0.46,0.42,0.58,0.72c0.12,0.29,0.14,0.61,0.07,0.92c-1.34,5.99-4.33,11.49-8.65,15.9
	C27.14,49.34,21.81,52.4,15.96,53.89z M30.7,19.21c0.4,0,0.75-0.27,0.85-0.66c0.07-0.28,0.11-0.57,0.11-0.86
	c0-0.29-0.04-0.58-0.11-0.86c-0.04-0.16-0.13-0.3-0.24-0.41h5.23c1.12,0,2.23-0.2,3.29-0.59l3.54-1.31c1.92,1.9,3.15,4.34,3.58,6.12
	c0.73,3.02-2.37,4.88-4.58,3.46c-1.26-0.8-2.47-1.72-3.59-2.73c-0.89-0.8-2.05-1.27-3.25-1.32l-5.25-0.22
	c-0.66-0.03-1.3-0.25-1.84-0.63H30.7z M28.25,18.72c-0.75,0-1.39-0.61-1.34-1.47c0.04-0.37,0.33-0.59,0.64-0.59h3.15
	c0.18,0,0.34,0.12,0.38,0.29c0.06,0.24,0.09,0.49,0.09,0.73c0,0.25-0.03,0.5-0.09,0.74c-0.04,0.17-0.2,0.29-0.38,0.29H28.25z
	 M34.61,15.74c-0.32,0.13-0.65,0.2-1,0.2h-3.05l9.02-4.06c0.64,0.31,1.25,0.66,1.82,1.05L34.61,15.74z M22.03,18.23
	c-0.12-0.06-0.24-0.13-0.35-0.22c2.96-2.03,4.42-3.79,5.4-4.72c0.25-0.23,0.52-0.39,0.89-0.47c1.29-0.29,4.51-1.03,6.61-1.76
	c0.71-0.25,1.45-0.3,2.2-0.16L22.03,18.23z M38.47,55.47c5-7.61,7.34-14.99,8.41-19.86c0.67-3.03,1.04-5.93,1.12-8.63
	c0.07-2.51-0.13-4.73-0.59-6.43c0,0,0,0,0-0.01c-0.39-1.59-1.5-4.11-3.55-6.2l3.04-1.13c0.05-0.02,0.09-0.06,0.1-0.12
	c0.01-0.05-0.01-0.11-0.04-0.15l-1.56-1.56c-0.03-0.03-0.07-0.05-0.12-0.05c-0.02,0-0.04,0-0.06,0.01l-3.27,1.36
	c-0.55-0.4-1.15-0.76-1.78-1.09l4.37-1.97c0.06-0.03,0.1-0.09,0.1-0.15V7.25c0-0.06-0.03-0.11-0.08-0.14
	c-0.05-0.03-0.11-0.03-0.16-0.01l-6.96,3.46c-0.32-0.08-0.77-0.23-1.48-0.23c-0.53,0-1.05,0.09-1.56,0.27
	c-2.08,0.73-5.27,1.46-6.55,1.74c-0.41,0.09-0.79,0.29-1.1,0.58l0,0c-1.05,0.99-2.49,2.75-5.53,4.8c-0.08,0.05-0.13,0.14-0.14,0.24
	c-0.01,0.1,0.03,0.19,0.1,0.26c0.1,0.1,0.21,0.19,0.32,0.26L0.91,28.72c0.15-15.36,12.7-27.82,28.1-27.82
	c15.49,0,28.1,12.61,28.1,28.1C57.11,41.18,49.33,51.57,38.47,55.47z"/>
</svg>
