<?xml version="1.0" encoding="utf-8"?>
<!-- Generator: Adobe Illustrator 23.0.2, SVG Export Plug-In . SVG Version: 6.00 Build 0)  -->
<svg version="1.1" id="Слой_1" xmlns="http://www.w3.org/2000/svg"  x="0px" y="0px"
	 viewBox="0 0 56.94 56.95" style="enable-background:new 0 0 56.94 56.95;" xml:space="preserve">
<style type="text/css">
	.st0{fill:#ED1B35;}
	.st1{fill:#FFFFFF;}
</style>
<path class="st0" d="M27.72,18.43h2.46c0.29,0,0.54-0.2,0.62-0.48c0.07-0.26,0.1-0.52,0.1-0.8c0-0.28-0.04-0.54-0.1-0.8
	c-0.07-0.28-0.33-0.48-0.62-0.48h-1.21l0,0h-1.95c-0.45,0-0.83,0.34-0.88,0.79l0,0c-0.03,0.3,0.08,0.71,0.31,1.12
	c0.03,0.04,0.06,0.08,0.09,0.12C26.84,18.24,27.27,18.43,27.72,18.43 M38.91,26.96c-2-1.34-3.84-2.9-5.48-4.64
	c-0.45-0.47-1.07-0.74-1.72-0.74h-6.12c-0.7,0-1.39-0.16-2-0.45L0.05,29.86l0,0c0.49,10.31,6.46,19.18,15.06,23.76l0,0
	c12.19-2.99,21.73-12.71,24.47-25C39.71,27.98,39.45,27.32,38.91,26.96 M28.48,0C12.79,0,0.06,12.69,0,28.37l0,0l20.95-10.41
	c-0.12-0.08-0.23-0.17-0.33-0.27c-0.07-0.07-0.1-0.16-0.09-0.26c0.01-0.09,0.06-0.18,0.14-0.23c1.73-1.17,3.33-2.52,4.76-4.03
	c0.25-0.27,0.53-0.54,0.79-0.79c0,0,0,0,0.01,0c0.31-0.29,0.69-0.49,1.1-0.58c1.34-0.3,4.51-1.03,6.58-1.75
	c0.86-0.3,1.79-0.35,2.67-0.13c0.13,0.03,0.25,0.07,0.38,0.1l6.99-3.48C44,6.52,44.06,6.52,44.1,6.55c0.05,0.03,0.08,0.08,0.08,0.14
	v2.25c0,0.06-0.04,0.12-0.09,0.14l-4.41,1.98c0.61,0.31,1.22,0.68,1.8,1.1l3.29-1.36c0.06-0.02,0.13-0.01,0.17,0.03l1.57,1.57
	c0.04,0.04,0.05,0.09,0.04,0.15c-0.01,0.05-0.05,0.1-0.1,0.11l-3.06,1.13c2,2.04,3.18,4.58,3.58,6.3c1.76,6.76-0.21,21.83-9.17,35.3
	l0,0l0,0c11.14-3.87,19.14-14.45,19.14-26.91C56.96,12.75,44.21,0,28.48,0"/>
<path d="M37.82,55.38L37.82,55.38c-2.93,1.02-6.07,1.57-9.34,1.57c-4.84,0-9.39-1.21-13.38-3.34c12.19-3,21.73-12.71,24.47-25
	c0.14-0.64-0.12-1.29-0.66-1.66c-2-1.34-3.84-2.9-5.48-4.64c-0.45-0.47-1.07-0.74-1.72-0.74h-6.12c-0.71,0-1.39-0.16-2-0.45
	L0.05,29.85c-0.01-0.12-0.02-0.45-0.02-0.69c-0.01-0.43-0.01-0.51-0.01-0.8L43.97,6.51c0.05-0.02,0.11-0.02,0.15,0.01
	c0.05,0.03,0.07,0.08,0.07,0.13V8.9c0,0.06-0.04,0.12-0.09,0.15l-15.13,6.81h-1.95c-0.45,0-0.83,0.34-0.88,0.79l0,0
	c-0.1,0.98,1.26,3.03,3.59,3.13L35.01,20c1.1,0.05,2.15,0.47,2.96,1.21c1.14,1.02,2.37,1.96,3.67,2.79c2.1,1.34,4.89,0.16,5.4-2.28
	c0.11-0.64,0.07-1.16-0.07-1.72C48.77,26.75,46.8,41.87,37.82,55.38"/>
<path d="M32.49,15.87l12.29-5.09c0.06-0.02,0.13-0.01,0.17,0.03l1.57,1.57c0.04,0.04,0.05,0.09,0.04,0.15
	c-0.01,0.05-0.05,0.1-0.1,0.11l-7.11,2.64c-1.06,0.39-2.17,0.59-3.3,0.59C36.05,15.87,32.49,15.87,32.49,15.87z"/>
<path class="st1" d="M46.97,20.01c-0.09-0.36-0.22-0.74-0.38-1.18l0,0c-0.68-1.87-1.76-3.6-3.19-5.06l-4.05,1.5
	c-1.06,0.39-2.17,0.59-3.3,0.59H32.5l8.99-3.73c-0.59-0.42-1.2-0.79-1.8-1.1l-10.72,4.83h1.22c0.29,0,0.54,0.2,0.62,0.48
	c0.07,0.26,0.1,0.52,0.1,0.8c0,0.28-0.04,0.54-0.1,0.8c-0.07,0.28-0.33,0.48-0.62,0.48h-2.46c-0.45,0-0.89-0.19-1.19-0.53
	c-0.03-0.04-0.07-0.08-0.09-0.12c0.66,1.15,1.87,1.95,3.29,2.01L35.02,20c1.1,0.05,2.15,0.47,2.96,1.21
	c1.14,1.03,2.37,1.96,3.67,2.79c2.1,1.34,4.89,0.16,5.4-2.28C47.15,21.09,47.11,20.57,46.97,20.01 M36.96,10l-16.01,7.96
	c-0.12-0.08-0.23-0.17-0.33-0.27c-0.07-0.07-0.1-0.16-0.09-0.26c0.01-0.09,0.06-0.18,0.14-0.23c1.73-1.17,3.33-2.52,4.76-4.03
	c0.25-0.27,0.53-0.54,0.8-0.79l0,0c0.31-0.29,0.69-0.49,1.1-0.58c1.34-0.3,4.51-1.03,6.59-1.76c0.86-0.3,1.78-0.35,2.67-0.13
	C36.71,9.93,36.84,9.96,36.96,10"/>
</svg>
